<svg width="1140" height="1024" xmlns="http://www.w3.org/2000/svg">
 <g>
  <title>Layer 1</title>
  <g id="svg_3">
   <path stroke="null" id="svg_4" d="m1.06444,-1.25602l1136.84116,0l0,1020.41771l-1136.84116,0l0,-1020.41771z" opacity="undefined" stroke-width="0" fill="none"/>
   <text font-weight="normal" transform="rotate(2 253.702 520.36) matrix(15.5407 0 0 15.67 -11448.4 -6726.21)" stroke="null" xml:space="preserve" text-anchor="start" font-family="'Yanone Kaffeesatz'" font-size="24" id="svg_7" y="468.81676" x="747.98166" stroke-width="0" fill="#d4aaff">3</text>
   <text transform="rotate(2 259.263 515.791) matrix(15.5407 0 0 15.67 -11719 -6831.97)" stroke="null" xml:space="preserve" text-anchor="start" font-family="'Yanone Kaffeesatz'" font-size="24" id="svg_6" y="475.27446" x="765.75184" stroke-width="0" fill="#000000">3</text>
   <text font-weight="bold" transform="rotate(-3.4391 467.529 544.068) matrix(7.75258 0 0 6.48315 -5452.07 -3837.36)" stroke="null" xml:space="preserve" text-anchor="start" font-family="'Lora'" font-size="24" id="svg_11" y="684.65626" x="747.56579" stroke-width="0" fill="#d4aaff">dit</text>
   <text font-weight="bold" transform="rotate(-3.4391 472.092 539.498) matrix(7.75258 0 0 6.48315 -5449.79 -3841.93)" stroke="null" xml:space="preserve" text-anchor="start" font-family="'Lora'" font-size="24" id="svg_9" y="684.65626" x="747.86024" stroke-width="0" fill="#000000">dit</text>
   <text font-weight="bold" transform="rotate(2.85319 843.118 539.576) matrix(7.75258 0 0 6.48315 -5102.81 -3853.35)" stroke="null" xml:space="preserve" text-anchor="start" font-family="'Lora'" font-size="24" id="svg_12" y="686.41684" x="748.44917" stroke-width="0" fill="#d4aaff">ase</text>
   <text font-weight="bold" transform="rotate(2.85319 847.688 535.016) matrix(7.75258 0 0 6.48315 -5098.24 -3857.91)" stroke="null" xml:space="preserve" text-anchor="start" font-family="'Lora'" font-size="24" id="svg_10" y="686.41684" x="748.44917" stroke-width="0" fill="#000000">ase</text>
   <text transform="rotate(4.00906 622.956 535.79) matrix(15.5407 0 0 15.67 -11361 -6844.97)" stroke="null" xml:space="preserve" text-anchor="start" font-family="'Yanone Kaffeesatz'" font-size="24" id="svg_2" y="477.38039" x="767.29617" stroke-width="0" fill="#d4aaff">E</text>
   <text transform="rotate(4.00906 630.957 531.79) matrix(15.5407 0 0 15.67 -11358 -6847.97)" stroke="null" xml:space="preserve" text-anchor="start" font-family="'Yanone Kaffeesatz'" font-size="24" id="svg_1" y="477.31658" x="767.61791" stroke-width="0" fill="#000000">E</text>
  </g>
 </g>

</svg>
