<svg width="1140" height="1024" xmlns="http://www.w3.org/2000/svg">
 <g>
  <title>Layer 1</title>
  <g id="svg_13">
   <path stroke="null" id="svg_4" d="m1.06444,-1.25602l1136.84116,0l0,1020.41771l-1136.84116,0l0,-1020.41771z" opacity="undefined" stroke-width="0" fill="none"/>
   <text transform="rotate(2 457.831 503.693) matrix(15.5407 0 0 15.67 -11520 -6966.98)" stroke="null" xml:space="preserve" text-anchor="start" font-family="'Yanone Kaffeesatz'" font-size="24" id="svg_5" y="483.18767" x="754.29808" stroke-width="0" fill="#000000">3    E</text>
   <text font-weight="normal" transform="rotate(2 453.26 508.285) matrix(15.5407 0 0 15.67 -11426.4 -7001.21)" stroke="null" xml:space="preserve" text-anchor="start" font-family="'Yanone Kaffeesatz'" font-size="24" id="svg_7" y="485.66424" x="747.98166" stroke-width="0" fill="#d4aaff">3    E</text>
   <text transform="rotate(2 457.826 503.72) matrix(15.5407 0 0 15.67 -11520 -6966.97)" stroke="null" xml:space="preserve" text-anchor="start" font-family="'Yanone Kaffeesatz'" font-size="24" id="svg_6" y="483.18767" x="754.29804" stroke-width="0" fill="#000000">3    E</text>
   <text font-weight="bold" transform="rotate(-3.4391 467.595 544.412) matrix(7.75258 0 0 6.48315 -5452.07 -3837.36)" stroke="null" xml:space="preserve" text-anchor="start" font-family="'Lora'" font-size="24" id="svg_11" y="684.65626" x="747.56579" stroke-width="0" fill="#d4aaff">dit</text>
   <text font-weight="bold" transform="rotate(-3.4391 472.156 539.841) matrix(7.75258 0 0 6.48315 -5449.79 -3841.93)" stroke="null" xml:space="preserve" text-anchor="start" font-family="'Lora'" font-size="24" id="svg_9" y="684.65626" x="747.86024" stroke-width="0" fill="#000000">dit</text>
   <text font-weight="bold" transform="rotate(2.85319 842.667 539.843) matrix(7.75258 0 0 6.48315 -5102.81 -3853.35)" stroke="null" xml:space="preserve" text-anchor="start" font-family="'Lora'" font-size="24" id="svg_12" y="686.41684" x="748.44917" stroke-width="0" fill="#d4aaff">ase</text>
   <text font-weight="bold" transform="rotate(2.85319 847.233 535.277) matrix(7.75258 0 0 6.48315 -5098.24 -3857.91)" stroke="null" xml:space="preserve" text-anchor="start" font-family="'Lora'" font-size="24" id="svg_10" y="686.41684" x="748.44917" stroke-width="0" fill="#000000">ase</text>
  </g>
 </g>

</svg>