<svg width="1140" height="1024" xmlns="http://www.w3.org/2000/svg">
 <g>
  <title>Layer 1</title>
  <path fill="none" stroke-width="0" opacity="undefined" d="m1.06444,-1.25602l1136.84116,0l0,1020.41771l-1136.84116,0l0,-1020.41771z" id="svg_4"/>
  <text fill="#d4aaff" stroke-width="0" x="747.98166" y="468.81676" id="svg_7" font-size="24" font-family="'Yanone Kaffeesatz'" text-anchor="start" xml:space="preserve" stroke="null" transform="rotate(-3.4391 311.986 -848.034) matrix(7.75258 0 0 6.48315 -5449.79 -3841.93)" font-weight="normal">3</text>
  <text fill="#000000" stroke-width="0" x="765.75184" y="475.27446" id="svg_6" font-size="24" font-family="'Yanone Kaffeesatz'" text-anchor="start" xml:space="preserve" stroke="null" transform="rotate(-3.4391 452.014 -814.507) matrix(7.75258 0 0 6.48315 -5449.79 -3841.93)">3</text>
  <text fill="#d4aaff" stroke-width="0" x="747.56579" y="684.65626" id="svg_11" font-size="24" font-family="'Lora'" text-anchor="start" xml:space="preserve" stroke="null" transform="rotate(-3.4391 454.647 545.237) matrix(7.75258 0 0 6.48315 -5449.79 -3841.93)" font-weight="bold">dit</text>
  <text fill="#000000" stroke-width="0" x="747.86024" y="684.65626" id="svg_9" font-size="24" font-family="'Lora'" text-anchor="start" xml:space="preserve" stroke="null" transform="rotate(-3.4391 473.103 535.782) matrix(7.75258 0 0 6.48315 -5447.79 -3844.93)" font-weight="bold">dit</text>
  <text fill="#d4aaff" stroke-width="0" x="748.44917" y="686.41684" id="svg_12" font-size="24" font-family="'Lora'" text-anchor="start" xml:space="preserve" stroke="null" transform="rotate(2.85319 823.409 543.198) matrix(7.75258 0 0 6.48315 -5102.81 -3853.35)" font-weight="bold">ase</text>
  <text fill="#000000" stroke-width="0" x="748.44917" y="686.41684" id="svg_10" font-size="24" font-family="'Lora'" text-anchor="start" xml:space="preserve" stroke="null" transform="rotate(2.85319 827.979 538.638) matrix(7.75258 0 0 6.48315 -5098.24 -3857.91)" font-weight="bold">ase</text>
  <text fill="#d4aaff" stroke-width="0" x="767.29617" y="477.38039" id="svg_2" font-size="24" font-family="'Yanone Kaffeesatz'" text-anchor="start" xml:space="preserve" stroke="null" transform="rotate(-3.4391 475.08 -802.216) matrix(7.75258 0 0 6.48315 -5449.79 -3841.93)">E</text>
  <text fill="#000000" stroke-width="0" x="767.61791" y="477.31658" id="svg_1" font-size="24" font-family="'Yanone Kaffeesatz'" text-anchor="start" xml:space="preserve" stroke="null" transform="rotate(-3.4391 477.545 -802.778) matrix(7.75258 0 0 6.48315 -5449.79 -3841.93)">E</text>
  <text transform="rotate(-4.00187 275.003 454.6) matrix(17.3233 0 0 18.7899 -4655.19 -9656.2)" stroke="null" xml:space="preserve" text-anchor="start" font-family="'Yanone Kaffeesatz'" font-size="24" id="svg_5" y="544.51655" x="279.58283" stroke-width="0" fill="#d4aaff">3</text>
  <text transform="rotate(-4.00187 281.017 447.607) matrix(17.3233 0 0 18.7899 -4655.19 -9656.2)" stroke="null" xml:space="preserve" text-anchor="start" font-family="'Yanone Kaffeesatz'" font-size="24" id="svg_3" y="544.14401" x="279.92919" stroke-width="0" fill="#000000">3</text>
  <text transform="rotate(-4.00187 638.633 479.6) matrix(17.3233 0 0 18.7899 -4655.19 -9656.2)" stroke="null" xml:space="preserve" text-anchor="start" font-family="'Yanone Kaffeesatz'" font-size="24" id="svg_13" y="545.84705" x="301.74951" stroke-width="0" fill="#d4aaff">E</text>
  <text transform="rotate(-4.00187 644.633 474.601) matrix(17.3233 0 0 18.7899 -4655.19 -9656.2)" stroke="null" xml:space="preserve" text-anchor="start" font-family="'Yanone Kaffeesatz'" font-size="24" id="svg_8" y="545.58095" x="302.09587" stroke-width="0" fill="#000000">E</text>
 </g>

</svg>